# Created with Anim8or 1.00
# Object "object01":

mtllib projectile.mtl

# Shape "projectile":
g projectile
# No. points 72:
v 0 -0.50000 0
v 0.19134 -0.46194 0
v 0.35355 -0.35355 0
v 0.46194 -0.19134 0
v 0.50000 0 0
v 0.46194 0.19134 0
v 0.35355 0.35355 0
v 0.19134 0.46194 0
v 0 0.50000 0
v 0.15480 -0.46194 -0.11247
v 0.28603 -0.35355 -0.20781
v 0.37372 -0.19134 -0.27152
v 0.40451 0 -0.29389
v 0.37372 0.19134 -0.27152
v 0.28603 0.35355 -0.20781
v 0.15480 0.46194 -0.11247
v 0.05913 -0.46194 -0.18198
v 0.10925 -0.35355 -0.33625
v 0.14275 -0.19134 -0.43933
v 0.15451 0 -0.47553
v 0.14275 0.19134 -0.43933
v 0.10925 0.35355 -0.33625
v 0.05913 0.46194 -0.18198
v -0.05913 -0.46194 -0.18198
v -0.10925 -0.35355 -0.33625
v -0.14275 -0.19134 -0.43933
v -0.15451 0 -0.47553
v -0.14275 0.19134 -0.43933
v -0.10925 0.35355 -0.33625
v -0.05913 0.46194 -0.18198
v -0.15480 -0.46194 -0.11247
v -0.28603 -0.35355 -0.20781
v -0.37372 -0.19134 -0.27152
v -0.40451 0 -0.29389
v -0.37372 0.19134 -0.27152
v -0.28603 0.35355 -0.20781
v -0.15480 0.46194 -0.11247
v -0.19134 -0.46194 0
v -0.35355 -0.35355 0
v -0.46194 -0.19134 0
v -0.50000 0 0
v -0.46194 0.19134 0
v -0.35355 0.35355 0
v -0.19134 0.46194 0
v -0.15480 -0.46194 0.11247
v -0.28603 -0.35355 0.20781
v -0.37372 -0.19134 0.27152
v -0.40451 0 0.29389
v -0.37372 0.19134 0.27152
v -0.28603 0.35355 0.20781
v -0.15480 0.46194 0.11247
v -0.05913 -0.46194 0.18198
v -0.10925 -0.35355 0.33625
v -0.14275 -0.19134 0.43933
v -0.15451 0 0.47553
v -0.14275 0.19134 0.43933
v -0.10925 0.35355 0.33625
v -0.05913 0.46194 0.18198
v 0.05913 -0.46194 0.18198
v 0.10925 -0.35355 0.33625
v 0.14275 -0.19134 0.43933
v 0.15451 0 0.47553
v 0.14275 0.19134 0.43933
v 0.10925 0.35355 0.33625
v 0.05913 0.46194 0.18198
v 0.15480 -0.46194 0.11247
v 0.28603 -0.35355 0.20781
v 0.37372 -0.19134 0.27152
v 0.40451 0 0.29389
v 0.37372 0.19134 0.27152
v 0.28603 0.35355 0.20781
v 0.15480 0.46194 0.11247

# No. normals 152:
vn 0.19470 -0.97882 -0.06326
vn 0.12033 -0.97882 -0.16562
vn 0 -0.97882 -0.20471
vn -0.12033 -0.97882 -0.16562
vn -0.19470 -0.97882 -0.06326
vn -0.19470 -0.97882 0.06326
vn -0.12033 -0.97882 0.16562
vn 0 -0.97882 0.20471
vn 0.12033 -0.97882 0.16562
vn 0.19470 -0.97882 0.06326
vn 0.54675 -0.81824 -0.17763
vn 0.33792 -0.81823 -0.46510
vn 0 -0.81823 -0.57489
vn -0.33792 -0.81823 -0.46510
vn -0.54676 -0.81823 -0.17765
vn -0.54675 -0.81824 0.17763
vn -0.33792 -0.81823 0.46510
vn 0 -0.81823 0.57489
vn 0.33792 -0.81823 0.46510
vn 0.54676 -0.81823 0.17765
vn 0.80268 -0.53636 -0.26080
vn 0.49609 -0.53636 -0.68280
vn 0 -0.53634 -0.84400
vn -0.49609 -0.53636 -0.68280
vn -0.80268 -0.53636 -0.26080
vn -0.80268 -0.53636 0.26080
vn -0.49609 -0.53636 0.68280
vn 0 -0.53634 0.84400
vn 0.49609 -0.53636 0.68280
vn 0.80268 -0.53636 0.26080
vn 0.93448 -0.18588 -0.30362
vn 0.57755 -0.18587 -0.79491
vn 0 -0.18589 -0.98257
vn -0.57754 -0.18589 -0.79492
vn -0.93448 -0.18587 -0.30363
vn -0.93448 -0.18588 0.30362
vn -0.57755 -0.18587 0.79491
vn 0 -0.18589 0.98257
vn 0.57754 -0.18589 0.79492
vn 0.93448 -0.18587 0.30363
vn 0.93448 0.18588 -0.30362
vn 0.57755 0.18587 -0.79491
vn 0 0.18589 -0.98257
vn -0.57754 0.18589 -0.79492
vn -0.93448 0.18587 -0.30363
vn -0.93448 0.18588 0.30362
vn -0.57755 0.18587 0.79491
vn 0 0.18589 0.98257
vn 0.57754 0.18589 0.79492
vn 0.93448 0.18587 0.30363
vn 0.80268 0.53636 -0.26080
vn 0.49609 0.53636 -0.68280
vn 0 0.53634 -0.84400
vn -0.49609 0.53636 -0.68280
vn -0.80268 0.53636 -0.26080
vn -0.80268 0.53636 0.26080
vn -0.49609 0.53636 0.68280
vn 0 0.53634 0.84400
vn 0.49609 0.53636 0.68280
vn 0.80268 0.53636 0.26080
vn 0.54675 0.81824 -0.17763
vn 0.33792 0.81823 -0.46510
vn 0 0.81823 -0.57489
vn -0.33792 0.81823 -0.46510
vn -0.54676 0.81823 -0.17765
vn -0.54675 0.81824 0.17763
vn -0.33792 0.81823 0.46510
vn 0 0.81823 0.57489
vn 0.33792 0.81823 0.46510
vn 0.54676 0.81823 0.17765
vn 0.19470 0.97882 -0.06326
vn 0.12033 0.97882 -0.16562
vn 0 0.97882 -0.20471
vn -0.12033 0.97882 -0.16562
vn -0.19470 0.97882 -0.06326
vn -0.19470 0.97882 0.06326
vn -0.12033 0.97882 0.16562
vn 0 0.97882 0.20471
vn 0.12033 0.97882 0.16562
vn 0.19470 0.97882 0.06326
vn 0 -1 0
vn 0.38141 -0.92441 0
vn 0.70576 -0.70845 0
vn 0.92338 -0.38390 0
vn 1 0 0
vn 0.92338 0.38390 0
vn 0.70576 0.70845 0
vn 0.38141 0.92441 0
vn 0 1 0
vn 0.30857 -0.92441 -0.22418
vn 0.57097 -0.70845 -0.41483
vn 0.74703 -0.38390 -0.54274
vn 0.80902 0 -0.58778
vn 0.74703 0.38390 -0.54274
vn 0.57097 0.70845 -0.41483
vn 0.30857 0.92441 -0.22418
vn 0.11786 -0.92441 -0.36274
vn 0.21809 -0.70845 -0.67122
vn 0.28534 -0.38390 -0.87818
vn 0.30902 0 -0.95105
vn 0.28534 0.38390 -0.87818
vn 0.21809 0.70845 -0.67122
vn 0.11786 0.92441 -0.36274
vn -0.11786 -0.92441 -0.36274
vn -0.21809 -0.70845 -0.67122
vn -0.28534 -0.38390 -0.87818
vn -0.30902 0 -0.95106
vn -0.28534 0.38390 -0.87818
vn -0.21809 0.70845 -0.67122
vn -0.11786 0.92441 -0.36274
vn -0.30857 -0.92441 -0.22418
vn -0.57097 -0.70845 -0.41483
vn -0.74703 -0.38390 -0.54274
vn -0.80902 0 -0.58778
vn -0.74703 0.38390 -0.54274
vn -0.57097 0.70845 -0.41483
vn -0.30857 0.92441 -0.22418
vn -0.38141 -0.92441 0
vn -0.70576 -0.70845 0
vn -0.92338 -0.38390 0
vn -1 0 0
vn -0.92338 0.38390 0
vn -0.70576 0.70845 0
vn -0.38141 0.92441 0
vn -0.30857 -0.92441 0.22418
vn -0.57097 -0.70845 0.41483
vn -0.74703 -0.38390 0.54274
vn -0.80902 0 0.58778
vn -0.74703 0.38390 0.54274
vn -0.57097 0.70845 0.41483
vn -0.30857 0.92441 0.22418
vn -0.11786 -0.92441 0.36274
vn -0.21809 -0.70845 0.67122
vn -0.28534 -0.38390 0.87818
vn -0.30902 0 0.95105
vn -0.28534 0.38390 0.87818
vn -0.21809 0.70845 0.67122
vn -0.11786 0.92441 0.36274
vn 0.11786 -0.92441 0.36274
vn 0.21809 -0.70845 0.67122
vn 0.28534 -0.38390 0.87818
vn 0.30902 0 0.95106
vn 0.28534 0.38390 0.87818
vn 0.21809 0.70845 0.67122
vn 0.11786 0.92441 0.36274
vn 0.30857 -0.92441 0.22418
vn 0.57097 -0.70845 0.41483
vn 0.74703 -0.38390 0.54274
vn 0.80902 0 0.58778
vn 0.74703 0.38390 0.54274
vn 0.57097 0.70845 0.41483
vn 0.30857 0.92441 0.22418

# No. texture coordinates 86:
vt 0.50000 0
vt 0.75000 0.12500
vt 0.85000 0.12500
vt 0.95000 0.12500
vt 0.05000 0.12500
vt 0.15000 0.12500
vt 0.25000 0.12500
vt 0.35000 0.12500
vt 0.45000 0.12500
vt 0.55000 0.12500
vt 0.65000 0.12500
vt 0.75000 0.25000
vt 0.85000 0.25000
vt 0.95000 0.25000
vt 0.05000 0.25000
vt 0.15000 0.25000
vt 0.25000 0.25000
vt 0.35000 0.25000
vt 0.45000 0.25000
vt 0.55000 0.25000
vt 0.65000 0.25000
vt 0.75000 0.37500
vt 0.85000 0.37500
vt 0.95000 0.37500
vt 0.05000 0.37500
vt 0.15000 0.37500
vt 0.25000 0.37500
vt 0.35000 0.37500
vt 0.45000 0.37500
vt 0.55000 0.37500
vt 0.65000 0.37500
vt 0.75000 0.50000
vt 0.85000 0.50000
vt 0.95000 0.50000
vt 0.05000 0.50000
vt 0.15000 0.50000
vt 0.25000 0.50000
vt 0.35000 0.50000
vt 0.45000 0.50000
vt 0.55000 0.50000
vt 0.65000 0.50000
vt 0.75000 0.62500
vt 0.85000 0.62500
vt 0.95000 0.62500
vt 0.05000 0.62500
vt 0.15000 0.62500
vt 0.25000 0.62500
vt 0.35000 0.62500
vt 0.45000 0.62500
vt 0.55000 0.62500
vt 0.65000 0.62500
vt 0.75000 0.75000
vt 0.85000 0.75000
vt 0.95000 0.75000
vt 0.05000 0.75000
vt 0.15000 0.75000
vt 0.25000 0.75000
vt 0.35000 0.75000
vt 0.45000 0.75000
vt 0.55000 0.75000
vt 0.65000 0.75000
vt 0.75000 0.87500
vt 0.85000 0.87500
vt 0.95000 0.87500
vt 0.05000 0.87500
vt 0.15000 0.87500
vt 0.25000 0.87500
vt 0.35000 0.87500
vt 0.45000 0.87500
vt 0.55000 0.87500
vt 0.65000 0.87500
vt 0.50000 1
vt 1.05 0.12500
vt 1.05 0.12500
vt 1.05 0.25000
vt 1.05 0.25000
vt 1.05 0.37500
vt 1.05 0.37500
vt 1.05 0.50000
vt 1.05 0.50000
vt 1.05 0.62500
vt 1.05 0.62500
vt 1.05 0.75000
vt 1.05 0.75000
vt 1.05 0.87500
vt 1.05 0.87500

# No. faces 80:

usemtl ___default___

f 10/3/90 2/2/82 1/1/81
f 17/4/97 10/3/90 1/1/81
f 24/73/104 17/4/97 1/1/81
f 31/6/111 24/5/104 1/1/81
f 38/7/118 31/6/111 1/1/81
f 45/8/125 38/7/118 1/1/81
f 52/9/132 45/8/125 1/1/81
f 59/10/139 52/9/132 1/1/81
f 66/11/146 59/10/139 1/1/81
f 2/2/82 66/11/146 1/1/81
f 11/13/91 3/12/83 2/2/82 10/3/90
f 18/14/98 11/13/91 10/3/90 17/4/97
f 25/75/105 18/14/98 17/4/97 24/74/104
f 32/16/112 25/15/105 24/5/104 31/6/111
f 39/17/119 32/16/112 31/6/111 38/7/118
f 46/18/126 39/17/119 38/7/118 45/8/125
f 53/19/133 46/18/126 45/8/125 52/9/132
f 60/20/140 53/19/133 52/9/132 59/10/139
f 67/21/147 60/20/140 59/10/139 66/11/146
f 3/12/83 67/21/147 66/11/146 2/2/82
f 12/23/92 4/22/84 3/12/83 11/13/91
f 19/24/99 12/23/92 11/13/91 18/14/98
f 26/77/106 19/24/99 18/14/98 25/76/105
f 33/26/113 26/25/106 25/15/105 32/16/112
f 40/27/120 33/26/113 32/16/112 39/17/119
f 47/28/127 40/27/120 39/17/119 46/18/126
f 54/29/134 47/28/127 46/18/126 53/19/133
f 61/30/141 54/29/134 53/19/133 60/20/140
f 68/31/148 61/30/141 60/20/140 67/21/147
f 4/22/84 68/31/148 67/21/147 3/12/83
f 13/33/93 5/32/85 4/22/84 12/23/92
f 20/34/100 13/33/93 12/23/92 19/24/99
f 27/79/107 20/34/100 19/24/99 26/78/106
f 34/36/114 27/35/107 26/25/106 33/26/113
f 41/37/121 34/36/114 33/26/113 40/27/120
f 48/38/128 41/37/121 40/27/120 47/28/127
f 55/39/135 48/38/128 47/28/127 54/29/134
f 62/40/142 55/39/135 54/29/134 61/30/141
f 69/41/149 62/40/142 61/30/141 68/31/148
f 5/32/85 69/41/149 68/31/148 4/22/84
f 14/43/94 6/42/86 5/32/85 13/33/93
f 21/44/101 14/43/94 13/33/93 20/34/100
f 28/81/108 21/44/101 20/34/100 27/80/107
f 35/46/115 28/45/108 27/35/107 34/36/114
f 42/47/122 35/46/115 34/36/114 41/37/121
f 49/48/129 42/47/122 41/37/121 48/38/128
f 56/49/136 49/48/129 48/38/128 55/39/135
f 63/50/143 56/49/136 55/39/135 62/40/142
f 70/51/150 63/50/143 62/40/142 69/41/149
f 6/42/86 70/51/150 69/41/149 5/32/85
f 15/53/95 7/52/87 6/42/86 14/43/94
f 22/54/102 15/53/95 14/43/94 21/44/101
f 29/83/109 22/54/102 21/44/101 28/82/108
f 36/56/116 29/55/109 28/45/108 35/46/115
f 43/57/123 36/56/116 35/46/115 42/47/122
f 50/58/130 43/57/123 42/47/122 49/48/129
f 57/59/137 50/58/130 49/48/129 56/49/136
f 64/60/144 57/59/137 56/49/136 63/50/143
f 71/61/151 64/60/144 63/50/143 70/51/150
f 7/52/87 71/61/151 70/51/150 6/42/86
f 16/63/96 8/62/88 7/52/87 15/53/95
f 23/64/103 16/63/96 15/53/95 22/54/102
f 30/85/110 23/64/103 22/54/102 29/84/109
f 37/66/117 30/65/110 29/55/109 36/56/116
f 44/67/124 37/66/117 36/56/116 43/57/123
f 51/68/131 44/67/124 43/57/123 50/58/130
f 58/69/138 51/68/131 50/58/130 57/59/137
f 65/70/145 58/69/138 57/59/137 64/60/144
f 72/71/152 65/70/145 64/60/144 71/61/151
f 8/62/88 72/71/152 71/61/151 7/52/87
f 9/72/89 8/62/88 16/63/96
f 9/72/89 16/63/96 23/64/103
f 9/72/89 23/64/103 30/86/110
f 9/72/89 30/65/110 37/66/117
f 9/72/89 37/66/117 44/67/124
f 9/72/89 44/67/124 51/68/131
f 9/72/89 51/68/131 58/69/138
f 9/72/89 58/69/138 65/70/145
f 9/72/89 65/70/145 72/71/152
f 9/72/89 72/71/152 8/62/88

# End of Object "object01"
