# Created with Anim8or 1.00
# Object "object01":

mtllib chunk.mtl

# Shape "mesh01":
g mesh01
# No. points 121:
v -50 0 -50
v -50 0 50
v -40 0 -50
v -40 0 50
v -30 0 -50
v -30 0 50
v -20 0 -50
v -20 0 50
v -10 0 -50
v -10 0 50
v 0 0 -50
v 0 0 50
v 10 0 -50
v 10 0 50
v 20 0 -50
v 20 0 50
v 30 0 -50
v 30 0 50
v 40 0 -50
v 40 0 50
v 50 0 -50
v 50 0 50
v -50 0 -40
v 50 0 -40
v -50 0 -30
v 50 0 -30
v -50 0 -20
v 50 0 -20
v -50 0 -10
v 50 0 -10
v -50 0 0
v 50 0 0
v -50 0 10
v 50 0 10
v -50 0 20
v 50 0 20
v -50 0 30
v 50 0 30
v -50 0 40
v 50 0 40
v -40 0 -40
v -40 0 -30
v -40 0 -20
v -40 0 -10
v -40 0 0
v -40 0 10
v -40 0 20
v -40 0 30
v -40 0 40
v -30 0 -40
v -30 0 -30
v -30 0 -20
v -30 0 -10
v -30 0 0
v -30 0 10
v -30 0 20
v -30 0 30
v -30 0 40
v -20 0 -40
v -20 0 -30
v -20 0 -20
v -20 0 -10
v -20 0 0
v -20 0 10
v -20 0 20
v -20 0 30
v -20 0 40
v -10 0 -40
v -10 0 -30
v -10 0 -20
v -10 0 -10
v -10 0 0
v -10 0 10
v -10 0 20
v -10 0 30
v -10 0 40
v 0 0 -40
v 0 0 -30
v 0 0 -20
v 0 0 -10
v 0 0 0
v 0 0 10
v 0 0 20
v 0 0 30
v 0 0 40
v 10 0 -40
v 10 0 -30
v 10 0 -20
v 10 0 -10
v 10 0 0
v 10 0 10
v 10 0 20
v 10 0 30
v 10 0 40
v 20 0 -40
v 20 0 -30
v 20 0 -20
v 20 0 -10
v 20 0 0
v 20 0 10
v 20 0 20
v 20 0 30
v 20 0 40
v 30 0 -40
v 30 0 -30
v 30 0 -20
v 30 0 -10
v 30 0 0
v 30 0 10
v 30 0 20
v 30 0 30
v 30 0 40
v 40 0 -40
v 40 0 -30
v 40 0 -20
v 40 0 -10
v 40 0 0
v 40 0 10
v 40 0 20
v 40 0 30
v 40 0 40

# No. normals 221:
vn 0 1 0
vn 0 1 0
vn 0 1 0
vn 0 1 0
vn 0 1 0
vn 0 1 0
vn 0 1 0
vn 0 1 0
vn 0 1 0
vn 0 1 0
vn 0 1 0
vn 0 1 0
vn 0 1 0
vn 0 1 0
vn 0 1 0
vn 0 1 0
vn 0 1 0
vn 0 1 0
vn 0 1 0
vn 0 1 0
vn 0 1 0
vn 0 1 0
vn 0 1 0
vn 0 1 0
vn 0 1 0
vn 0 1 0
vn 0 1 0
vn 0 1 0
vn 0 1 0
vn 0 1 0
vn 0 1 0
vn 0 1 0
vn 0 1 0
vn 0 1 0
vn 0 1 0
vn 0 1 0
vn 0 1 0
vn 0 1 0
vn 0 1 0
vn 0 1 0
vn 0 1 0
vn 0 1 0
vn 0 1 0
vn 0 1 0
vn 0 1 0
vn 0 1 0
vn 0 1 0
vn 0 1 0
vn 0 1 0
vn 0 1 0
vn 0 1 0
vn 0 1 0
vn 0 1 0
vn 0 1 0
vn 0 1 0
vn 0 1 0
vn 0 1 0
vn 0 1 0
vn 0 1 0
vn 0 1 0
vn 0 1 0
vn 0 1 0
vn 0 1 0
vn 0 1 0
vn 0 1 0
vn 0 1 0
vn 0 1 0
vn 0 1 0
vn 0 1 0
vn 0 1 0
vn 0 1 0
vn 0 1 0
vn 0 1 0
vn 0 1 0
vn 0 1 0
vn 0 1 0
vn 0 1 0
vn 0 1 0
vn 0 1 0
vn 0 1 0
vn 0 1 0
vn 0 1 0
vn 0 1 0
vn 0 1 0
vn 0 1 0
vn 0 1 0
vn 0 1 0
vn 0 1 0
vn 0 1 0
vn 0 1 0
vn 0 1 0
vn 0 1 0
vn 0 1 0
vn 0 1 0
vn 0 1 0
vn 0 1 0
vn 0 1 0
vn 0 1 0
vn 0 1 0
vn 0 1 0
vn 0 1 0
vn 0 1 0
vn 0 1 0
vn 0 1 0
vn 0 1 0
vn 0 1 0
vn 0 1 0
vn 0 1 0
vn 0 1 0
vn 0 1 0
vn 0 1 0
vn 0 1 0
vn 0 1 0
vn 0 1 0
vn 0 1 0
vn 0 1 0
vn 0 1 0
vn 0 1 0
vn 0 1 0
vn 0 1 0
vn 0 1 0
vn 0 1 0
vn 0 1 0
vn 0 1 0
vn 0 1 0
vn 0 1 0
vn 0 1 0
vn 0 1 0
vn 0 1 0
vn 0 1 0
vn 0 1 0
vn 0 1 0
vn 0 1 0
vn 0 1 0
vn 0 1 0
vn 0 1 0
vn 0 1 0
vn 0 1 0
vn 0 1 0
vn 0 1 0
vn 0 1 0
vn 0 1 0
vn 0 1 0
vn 0 1 0
vn 0 1 0
vn 0 1 0
vn 0 1 0
vn 0 1 0
vn 0 1 0
vn 0 1 0
vn 0 1 0
vn 0 1 0
vn 0 1 0
vn 0 1 0
vn 0 1 0
vn 0 1 0
vn 0 1 0
vn 0 1 0
vn 0 1 0
vn 0 1 0
vn 0 1 0
vn 0 1 0
vn 0 1 0
vn 0 1 0
vn 0 1 0
vn 0 1 0
vn 0 1 0
vn 0 1 0
vn 0 1 0
vn 0 1 0
vn 0 1 0
vn 0 1 0
vn 0 1 0
vn 0 1 0
vn 0 1 0
vn 0 1 0
vn 0 1 0
vn 0 1 0
vn 0 1 0
vn 0 1 0
vn 0 1 0
vn 0 1 0
vn 0 1 0
vn 0 1 0
vn 0 1 0
vn 0 1 0
vn 0 1 0
vn 0 1 0
vn 0 1 0
vn 0 1 0
vn 0 1 0
vn 0 1 0
vn 0 1 0
vn 0 1 0
vn 0 1 0
vn 0 1 0
vn 0 1 0
vn 0 1 0
vn 0 1 0
vn 0 1 0
vn 0 1 0
vn 0 1 0
vn 0 1 0
vn 0 1 0
vn 0 1 0
vn 0 1 0
vn 0 1 0
vn 0 1 0
vn 0 1 0
vn 0 1 0
vn 0 1 0
vn 0 1 0
vn 0 1 0
vn 0 1 0
vn 0 1 0
vn 0 1 0
vn 0 1 0
vn 0 1 0
vn 0 1 0
vn 0 1 0
vn 0 1 0

# No. texture coordinates 121:
vt 0 1
vt 0.10000 1
vt 0.10000 0.90000
vt 0 0.90000
vt 0.10000 0.80000
vt 0 0.80000
vt 0.10000 0.70000
vt 0 0.70000
vt 0.10000 0.60000
vt 0 0.60000
vt 0.10000 0.50000
vt 0 0.50000
vt 0.10000 0.40000
vt 0 0.40000
vt 0.10000 0.30000
vt 0 0.30000
vt 0.10000 0.20000
vt 0 0.20000
vt 0.10000 0.10000
vt 0 0.10000
vt 0.10000 0
vt 0 0
vt 0.20000 1
vt 0.20000 0.90000
vt 0.20000 0.80000
vt 0.20000 0.70000
vt 0.20000 0.60000
vt 0.20000 0.50000
vt 0.20000 0.40000
vt 0.20000 0.30000
vt 0.20000 0.20000
vt 0.20000 0.10000
vt 0.20000 0
vt 0.30000 1
vt 0.30000 0.90000
vt 0.30000 0.80000
vt 0.30000 0.70000
vt 0.30000 0.60000
vt 0.30000 0.50000
vt 0.30000 0.40000
vt 0.30000 0.30000
vt 0.30000 0.20000
vt 0.30000 0.10000
vt 0.30000 0
vt 0.40000 1
vt 0.40000 0.90000
vt 0.40000 0.80000
vt 0.40000 0.70000
vt 0.40000 0.60000
vt 0.40000 0.50000
vt 0.40000 0.40000
vt 0.40000 0.30000
vt 0.40000 0.20000
vt 0.40000 0.10000
vt 0.40000 0
vt 0.50000 1
vt 0.50000 0.90000
vt 0.50000 0.80000
vt 0.50000 0.70000
vt 0.50000 0.60000
vt 0.50000 0.50000
vt 0.50000 0.40000
vt 0.50000 0.30000
vt 0.50000 0.20000
vt 0.50000 0.10000
vt 0.50000 0
vt 0.60000 1
vt 0.60000 0.90000
vt 0.60000 0.80000
vt 0.60000 0.70000
vt 0.60000 0.60000
vt 0.60000 0.50000
vt 0.60000 0.40000
vt 0.60000 0.30000
vt 0.60000 0.20000
vt 0.60000 0.10000
vt 0.60000 0
vt 0.70000 1
vt 0.70000 0.90000
vt 0.70000 0.80000
vt 0.70000 0.70000
vt 0.70000 0.60000
vt 0.70000 0.50000
vt 0.70000 0.40000
vt 0.70000 0.30000
vt 0.70000 0.20000
vt 0.70000 0.10000
vt 0.70000 0
vt 0.80000 1
vt 0.80000 0.90000
vt 0.80000 0.80000
vt 0.80000 0.70000
vt 0.80000 0.60000
vt 0.80000 0.50000
vt 0.80000 0.40000
vt 0.80000 0.30000
vt 0.80000 0.20000
vt 0.80000 0.10000
vt 0.80000 0
vt 0.90000 1
vt 0.90000 0.90000
vt 0.90000 0.80000
vt 0.90000 0.70000
vt 0.90000 0.60000
vt 0.90000 0.50000
vt 0.90000 0.40000
vt 0.90000 0.30000
vt 0.90000 0.20000
vt 0.90000 0.10000
vt 0.90000 0
vt 1 1
vt 1 0.90000
vt 1 0.80000
vt 1 0.70000
vt 1 0.60000
vt 1 0.50000
vt 1 0.40000
vt 1 0.30000
vt 1 0.20000
vt 1 0.10000
vt 1 0

# No. faces 100:

usemtl ___default___

f 23/4/123 41/3/141 3/2/103 1/1/101
f 25/6/125 42/5/142 41/3/141 23/4/123
f 27/8/127 43/7/143 42/5/142 25/6/125
f 29/10/129 44/9/144 43/7/143 27/8/127
f 31/12/131 45/11/145 44/9/144 29/10/129
f 33/14/133 46/13/146 45/11/145 31/12/131
f 35/16/135 47/15/147 46/13/146 33/14/133
f 37/18/137 48/17/148 47/15/147 35/16/135
f 39/20/139 49/19/149 48/17/148 37/18/137
f 2/22/102 4/21/104 49/19/149 39/20/139
f 41/3/141 50/24/150 5/23/105 3/2/103
f 42/5/142 51/25/151 50/24/150 41/3/141
f 43/7/143 52/26/152 51/25/151 42/5/142
f 44/9/144 53/27/153 52/26/152 43/7/143
f 45/11/145 54/28/154 53/27/153 44/9/144
f 46/13/146 55/29/155 54/28/154 45/11/145
f 47/15/147 56/30/156 55/29/155 46/13/146
f 48/17/148 57/31/157 56/30/156 47/15/147
f 49/19/149 58/32/158 57/31/157 48/17/148
f 4/21/104 6/33/106 58/32/158 49/19/149
f 50/24/150 59/35/159 7/34/107 5/23/105
f 51/25/151 60/36/160 59/35/159 50/24/150
f 52/26/152 61/37/161 60/36/160 51/25/151
f 53/27/153 62/38/162 61/37/161 52/26/152
f 54/28/154 63/39/163 62/38/162 53/27/153
f 55/29/155 64/40/164 63/39/163 54/28/154
f 56/30/156 65/41/165 64/40/164 55/29/155
f 57/31/157 66/42/166 65/41/165 56/30/156
f 58/32/158 67/43/167 66/42/166 57/31/157
f 6/33/106 8/44/108 67/43/167 58/32/158
f 59/35/159 68/46/168 9/45/109 7/34/107
f 60/36/160 69/47/169 68/46/168 59/35/159
f 61/37/161 70/48/170 69/47/169 60/36/160
f 62/38/162 71/49/171 70/48/170 61/37/161
f 63/39/163 72/50/172 71/49/171 62/38/162
f 64/40/164 73/51/173 72/50/172 63/39/163
f 65/41/165 74/52/174 73/51/173 64/40/164
f 66/42/166 75/53/175 74/52/174 65/41/165
f 67/43/167 76/54/176 75/53/175 66/42/166
f 8/44/108 10/55/110 76/54/176 67/43/167
f 68/46/168 77/57/177 11/56/111 9/45/109
f 69/47/169 78/58/178 77/57/177 68/46/168
f 70/48/170 79/59/179 78/58/178 69/47/169
f 71/49/171 80/60/180 79/59/179 70/48/170
f 72/50/172 81/61/181 80/60/180 71/49/171
f 73/51/173 82/62/182 81/61/181 72/50/172
f 74/52/174 83/63/183 82/62/182 73/51/173
f 75/53/175 84/64/184 83/63/183 74/52/174
f 76/54/176 85/65/185 84/64/184 75/53/175
f 10/55/110 12/66/112 85/65/185 76/54/176
f 77/57/177 86/68/186 13/67/113 11/56/111
f 78/58/178 87/69/187 86/68/186 77/57/177
f 79/59/179 88/70/188 87/69/187 78/58/178
f 80/60/180 89/71/189 88/70/188 79/59/179
f 81/61/181 90/72/190 89/71/189 80/60/180
f 82/62/182 91/73/191 90/72/190 81/61/181
f 83/63/183 92/74/192 91/73/191 82/62/182
f 84/64/184 93/75/193 92/74/192 83/63/183
f 85/65/185 94/76/194 93/75/193 84/64/184
f 12/66/112 14/77/114 94/76/194 85/65/185
f 86/68/186 95/79/195 15/78/115 13/67/113
f 87/69/187 96/80/196 95/79/195 86/68/186
f 88/70/188 97/81/197 96/80/196 87/69/187
f 89/71/189 98/82/198 97/81/197 88/70/188
f 90/72/190 99/83/199 98/82/198 89/71/189
f 91/73/191 100/84/200 99/83/199 90/72/190
f 92/74/192 101/85/201 100/84/200 91/73/191
f 93/75/193 102/86/202 101/85/201 92/74/192
f 94/76/194 103/87/203 102/86/202 93/75/193
f 14/77/114 16/88/116 103/87/203 94/76/194
f 95/79/195 104/90/204 17/89/117 15/78/115
f 96/80/196 105/91/205 104/90/204 95/79/195
f 97/81/197 106/92/206 105/91/205 96/80/196
f 98/82/198 107/93/207 106/92/206 97/81/197
f 99/83/199 108/94/208 107/93/207 98/82/198
f 100/84/200 109/95/209 108/94/208 99/83/199
f 101/85/201 110/96/210 109/95/209 100/84/200
f 102/86/202 111/97/211 110/96/210 101/85/201
f 103/87/203 112/98/212 111/97/211 102/86/202
f 16/88/116 18/99/118 112/98/212 103/87/203
f 104/90/204 113/101/213 19/100/119 17/89/117
f 105/91/205 114/102/214 113/101/213 104/90/204
f 106/92/206 115/103/215 114/102/214 105/91/205
f 107/93/207 116/104/216 115/103/215 106/92/206
f 108/94/208 117/105/217 116/104/216 107/93/207
f 109/95/209 118/106/218 117/105/217 108/94/208
f 110/96/210 119/107/219 118/106/218 109/95/209
f 111/97/211 120/108/220 119/107/219 110/96/210
f 112/98/212 121/109/221 120/108/220 111/97/211
f 18/99/118 20/110/120 121/109/221 112/98/212
f 113/101/213 24/112/124 21/111/121 19/100/119
f 114/102/214 26/113/126 24/112/124 113/101/213
f 115/103/215 28/114/128 26/113/126 114/102/214
f 116/104/216 30/115/130 28/114/128 115/103/215
f 117/105/217 32/116/132 30/115/130 116/104/216
f 118/106/218 34/117/134 32/116/132 117/105/217
f 119/107/219 36/118/136 34/117/134 118/106/218
f 120/108/220 38/119/138 36/118/136 119/107/219
f 121/109/221 40/120/140 38/119/138 120/108/220
f 20/110/120 22/121/122 40/120/140 121/109/221

# End of Object "object01"
