# Created with Anim8or 1.00
# Object "object01":

mtllib chunk.mtl

# Shape "chunk":
g chunk
# No. points 25:
v -0.50001 0 -0.50000
v -0.50001 0 0.50000
v 0.49999 0 -0.50000
v 0.49999 0 0.50000
v 0 0 -0.50000
v 0 0 0.50000
v -0.50001 0 0
v 0.49999 0 0
v 0 0 0
v -0.50001 0 -0.25000
v -0.25001 0 -0.50000
v 0 0 -0.25000
v -0.25001 0 0
v 0.24999 0 -0.50000
v 0.49999 0 -0.25000
v 0.24999 0 0
v 0.49999 0 0.25000
v 0.24999 0 0.50000
v 0 0 0.25000
v -0.25001 0 0.50000
v -0.50001 0 0.25000
v -0.25001 0 -0.25000
v 0.24999 0 -0.25000
v 0.24999 0 0.25000
v -0.25001 0 0.25000

# No. normals 41:
vn 0 1 0
vn 0 1 0
vn 0 1 0
vn 0 1 0
vn 0 1 0
vn 0 1 0
vn 0 1 0
vn 0 1 0
vn 0 1 0
vn 0 1 0
vn 0 1 0
vn 0 1 0
vn 0 1 0
vn 0 1 0
vn 0 1 0
vn 0 1 0
vn 0 1 0
vn 0 1 0
vn 0 1 0
vn 0 1 0
vn 0 1 0
vn 0 1 0
vn 0 1 0
vn 0 1 0
vn 0 1 0
vn 0 1 0
vn 0 1 0
vn 0 1 0
vn 0 1 0
vn 0 1 0
vn 0 1 0
vn 0 1 0
vn 0 1 0
vn 0 1 0
vn 0 1 0
vn 0 1 0
vn 0 1 0
vn 0 1 0
vn 0 1 0
vn 0 1 0
vn 0 1 0

# No. texture coordinates 25:
vt 0.24752 0.50000
vt -0.00248 0.50000
vt -0.00248 0.75000
vt 0.24752 0.75000
vt -0.00248 1
vt 0.24752 1
vt 0.49753 1
vt 0.49753 0.75000
vt 0.49753 0.50000
vt 0.74752 1
vt 0.74752 0.75000
vt 0.99752 1
vt 0.99752 0.75000
vt 0.99752 0.50000
vt 0.74752 0.50000
vt 0.99752 0.25000
vt 0.74752 0.25000
vt 0.99752 0
vt 0.74752 0
vt 0.49753 0
vt 0.49753 0.25000
vt 0.24752 0
vt 0.24752 0.25000
vt -0.00248 0
vt -0.00248 0.25000

# No. faces 16:

usemtl ___default___

f 22/4/38 10/3/26 7/2/23 13/1/29
f 22/4/38 11/6/27 1/5/17 10/3/26
f 22/4/38 12/8/28 5/7/21 11/6/27
f 22/4/38 13/1/29 9/9/25 12/8/28
f 23/11/39 14/10/30 5/7/21 12/8/28
f 23/11/39 15/13/31 3/12/19 14/10/30
f 23/11/39 16/15/32 8/14/24 15/13/31
f 23/11/39 12/8/28 9/9/25 16/15/32
f 24/17/40 17/16/33 8/14/24 16/15/32
f 24/17/40 18/19/34 4/18/20 17/16/33
f 24/17/40 19/21/35 6/20/22 18/19/34
f 24/17/40 16/15/32 9/9/25 19/21/35
f 25/23/41 20/22/36 6/20/22 19/21/35
f 25/23/41 21/25/37 2/24/18 20/22/36
f 25/23/41 13/1/29 7/2/23 21/25/37
f 25/23/41 19/21/35 9/9/25 13/1/29

# End of Object "object01"
