# Created with Anim8or 1.00
# Object "object01":

mtllib cube.mtl

# Shape "cube":
g cube
# No. points 8:
v -0.50000 -0.50000 -0.50000
v -0.50000 -0.50000 0.50000
v -0.50000 0.50000 -0.50000
v -0.50000 0.50000 0.50000
v 0.50000 -0.50000 -0.50000
v 0.50000 -0.50000 0.50000
v 0.50000 0.50000 -0.50000
v 0.50000 0.50000 0.50000

# No. normals 36:
vn 0 0 -1
vn 0 0 1
vn -1 0 0
vn 1 0 0
vn 0 1 0
vn 0 -1 0
vn 0 0 -1
vn 0 -1 0
vn -1 0 0
vn 0 0 1
vn 0 -1 0
vn -1 0 0
vn 0 0 -1
vn 0 1 0
vn -1 0 0
vn 0 0 1
vn 0 1 0
vn -1 0 0
vn 0 0 -1
vn 0 -1 0
vn 1 0 0
vn 0 0 1
vn 0 -1 0
vn 1 0 0
vn 0 0 -1
vn 0 1 0
vn 1 0 0
vn 0 0 1
vn 0 1 0
vn 1 0 0
vn 0 0 -1
vn 0 0 1
vn -1 0 0
vn 1 0 0
vn 0 1 0
vn 0 -1 0

# No. texture coordinates 8:
vt 0 0.25168
vt 0.50230 0.50107
vt 0.50230 0.999999
vt 0 0.75062
vt 0.49770 0
vt 0.49770 0.49893
vt 1 0.74831
vt 1 0.24938

# No. faces 6:

usemtl ___default___

f 3/4/13 7/3/25 5/2/19 1/1/7
f 6/8/22 8/7/28 4/6/16 2/5/10
f 2/5/12 4/6/18 3/4/15 1/1/9
f 7/3/27 8/7/30 6/8/24 5/2/21
f 4/6/17 8/7/29 7/3/26 3/4/14
f 5/2/20 6/8/23 2/5/11 1/1/8

# End of Object "object01"
