# Created with Anim8or 1.00
# Object "grass":

mtllib grass.mtl

# Shape "mesh02":
g mesh02
# No. points 8:
v -0.50000 -0.50000 0
v -0.50000 0.50000 0
v 0.50000 0.50000 0
v 0.50000 -0.50000 0
v 0 -0.50000 -0.50000
v 0 0.50000 -0.50000
v 0 0.50000 0.50000
v 0 -0.50000 0.50000

# No. normals 14:
vn 0 0 1
vn -1 0 0
vn 0 0 1
vn 0 0 1
vn 0 0 1
vn 0 0 1
vn -1 0 0
vn -1 0 0
vn -1 0 0
vn -1 0 0
vn 0 0 1
vn -1 0 0
vn 0 0 1
vn -1 0 0

# No. texture coordinates 8:
vt -0.00690 -0.00015
vt -0.00690 1.00015
vt 1.0069 1.00015
vt 1.0069 -0.00015
vt -0.00690 -0.00015
vt -0.00690 1.00015
vt 1.0069 1.00015
vt 1.0069 -0.00015

# No. faces 2:

usemtl ___default___

f 4/4/6 3/3/5 2/2/4 1/1/3
f 8/8/10 7/7/9 6/6/8 5/5/7

# End of Object "grass"
