# Created with Anim8or 1.00
# Object "object01":

mtllib grassVert.mtl

# Shape "mesh01":
g mesh01
# No. points 4:
v 0 -0.50251 -0.34968
v 0 0.50251 -0.34968
v 0 0.50251 0.34968
v 0 -0.50251 0.34968

# No. normals 6:
vn -1 0 0
vn -1 0 0
vn -1 0 0
vn -1 0 0
vn -1 0 0
vn -1 0 0

# No. texture coordinates 4:
vt -0.00690 -0.00015
vt -0.00690 1.0001
vt 1.0069 1.0001
vt 1.0069 -0.00015

# No. faces 1:

usemtl ___default___

f 4/4/5 3/3/4 2/2/3 1/1/2

# End of Object "object01"
