# Created with Anim8or 1.00
# Object "tree_pine":

mtllib leaf.mtl

# Shape "leaf":
g leaf
# No. points 12:
v 1.8571 0.43486 0
v 1.7499 0 -1.2501
v 3.5002 0 0
v 1.7499 0 1.2501
v 0.00017 0 0
v 0.00017 0 0
v 1.8571 0.43486 0
v 1.7499 0 1.2501
v 3.5002 0 0
v 1.7499 0 -1.2501
v 0.00017 0 0
v 0.00017 0 0

# No. normals 14:
vn 0.24086 0.91009 -0.33724
vn 0.24086 0.91009 0.33724
vn -0.21722 0.92757 -0.30404
vn -0.21722 0.92757 0.30404
vn 0.01286 0.999917 0
vn 0.01215 0.94409 -0.32945
vn 0.25585 0.96672 0
vn 0.01215 0.94409 0.32945
vn -0.21722 0.92757 -0.30404
vn -0.21722 0.92757 0.30404
vn 0.24086 0.91009 -0.33724
vn 0.24086 0.91009 0.33724
vn -0.21722 0.92757 -0.30404
vn -0.21722 0.92757 0.30404

# No. texture coordinates 6:
vt 0.50000 0.46002
vt -0.05775 0.45958
vt 0.49999 0.93732
vt 1.0577 0.45958
vt 0.42144 -0.09496
vt 0.57855 -0.09496

# No. faces 4:

usemtl ___default___

f 3/3/7 2/2/6 1/1/5
f 1/1/5 4/4/8 3/3/7
f 1/1/5 2/2/6 5/5/9
f 6/6/10 4/4/8 1/1/5

# End of Object "tree_pine"
