# Created with Anim8or 1.00
# Object "object01":

mtllib log.mtl

# Shape "bottom":
g bottom
# No. points 8:
v 0.50000 -0.50000 0
v 0.35355 -0.50000 -0.35354
v 0 -0.50000 -0.49999
v -0.35355 -0.50000 -0.35354
v -0.50000 -0.50000 0
v -0.35355 -0.50000 0.35356
v 0 -0.50000 0.50001
v 0.35355 -0.50000 0.35356

# No. normals 10:
vn 0 -1 0
vn 0 -1 0
vn 0 -1 0
vn 0 -1 0
vn 0 -1 0
vn 0 -1 0
vn 0 -1 0
vn 0 -1 0
vn 0 -1 0
vn 0 -1 0

# No. texture coordinates 8:
vt 0.98250 0.50182
vt 0.84118 0.16081
vt 0.50000 0.01955
vt 0.15882 0.16081
vt 0.01750 0.50182
vt 0.15882 0.84284
vt 0.50000 0.98410
vt 0.84118 0.84284

# No. faces 1:

usemtl ___default___

f 8/8/9 7/7/8 6/6/7 5/5/6 4/4/5 3/3/4 2/2/3 1/1/2

# Shape "top":
g top
# No. points 8:
v 0.35355 0.50000 0.35356
v 0 0.50000 0.50001
v -0.35355 0.50000 0.35356
v -0.50000 0.50000 0
v -0.35355 0.50000 -0.35354
v 0 0.50000 -0.49999
v 0.35355 0.50000 -0.35354
v 0.50000 0.50000 0

# No. normals 10:
vn 0 1 0
vn 0 1 0
vn 0 1 0
vn 0 1 0
vn 0 1 0
vn 0 1 0
vn 0 1 0
vn 0 1 0
vn 0 1 0
vn 0 1 0

# No. texture coordinates 8:
vt 0.84118 0.16058
vt 0.50000 0.01999
vt 0.15882 0.16058
vt 0.01750 0.50000
vt 0.15882 0.83940
vt 0.50000 0.97999
vt 0.84118 0.83940
vt 0.98250 0.50000

# No. faces 1:

usemtl ___default___

f 16/16/19 15/15/18 14/14/17 13/13/16 12/12/15 11/11/14 10/10/13 9/9/12

# Shape "trunk":
g trunk
# No. points 16:
v 0.35355 -0.50000 -0.35354
v 0.50000 -0.50000 0
v 0.50000 0.50000 0
v 0.35355 0.50000 -0.35354
v 0 -0.50000 -0.49999
v 0 0.50000 -0.49999
v -0.35355 -0.50000 -0.35354
v -0.35355 0.50000 -0.35354
v -0.50000 -0.50000 0
v -0.50000 0.50000 0
v -0.35355 -0.50000 0.35356
v -0.35355 0.50000 0.35356
v 0 -0.50000 0.50001
v 0 0.50000 0.50001
v 0.35355 -0.50000 0.35356
v 0.35355 0.50000 0.35356

# No. normals 40:
vn 0.92387 0 -0.38270
vn 0.38269 0 -0.92388
vn -0.38269 0 -0.92388
vn -0.92387 0 -0.38270
vn -0.92388 0 0.38268
vn -0.38269 0 0.92388
vn 0.38269 0 0.92388
vn 0.92388 0 0.38268
vn 0.70710 0 -0.70711
vn 0.92387 0 -0.38270
vn 0.92388 0 0.38268
vn 0.92387 0 -0.38270
vn 0.92388 0 0.38268
vn 0.70710 0 -0.70711
vn 0.38269 0 -0.92388
vn -0.38269 0 -0.92388
vn 0.38269 0 -0.92388
vn -0.38269 0 -0.92388
vn -0.70710 0 -0.70711
vn -0.70710 0 -0.70711
vn -0.92387 0 -0.38270
vn -0.92388 0 0.38268
vn -0.92387 0 -0.38270
vn -0.92388 0 0.38268
vn -0.70711 0 0.70710
vn -0.70711 0 0.70710
vn -0.38269 0 0.92388
vn 0.38269 0 0.92388
vn -0.38269 0 0.92388
vn 0.38269 0 0.92388
vn 0.70711 0 0.70710
vn 0.70711 0 0.70710
vn 0.92387 0 -0.38270
vn 0.38269 0 -0.92388
vn -0.38269 0 -0.92388
vn -0.92387 0 -0.38270
vn -0.92388 0 0.38268
vn -0.38269 0 0.92388
vn 0.38269 0 0.92388
vn 0.92388 0 0.38268

# No. texture coordinates 18:
vt 0.87500 0
vt 0.75000 0
vt 0.75000 1
vt 0.87500 1
vt 1 0
vt 1 1
vt 0.12500 0
vt 0.12500 1
vt 0.25000 0
vt 0.25000 1
vt 0.37500 0
vt 0.37500 1
vt 0.50000 0
vt 0.50000 1
vt 0.62500 0
vt 0.62500 1
vt 1.125 0
vt 1.125 1

# No. faces 8:

usemtl ___default___

f 20/20/34 19/19/32 18/18/30 17/17/29
f 22/22/37 20/20/34 17/17/29 21/21/35
f 24/34/40 22/22/38 21/21/36 23/33/39
f 26/26/43 24/24/40 23/23/39 25/25/41
f 28/28/46 26/26/44 25/25/42 27/27/45
f 30/30/49 28/28/46 27/27/45 29/29/47
f 32/32/52 30/30/50 29/29/48 31/31/51
f 19/19/33 32/32/52 31/31/51 18/18/31

# End of Object "object01"
