# Created with Anim8or 1.00
# Object "object01":

mtllib log.mtl

# Shape "bottom":
g bottom
# No. points 8:
v 0.22579 -0.50000 0
v 0.15966 -0.50000 -0.15965
v 0 -0.50000 -0.22579
v -0.15966 -0.50000 -0.15965
v -0.22579 -0.50000 0
v -0.15966 -0.50000 0.15966
v 0 -0.50000 0.22580
v 0.15966 -0.50000 0.15966

# No. normals 9:
vn 0 -1 0
vn 0 -1 0
vn 0 -1 0
vn 0 -1 0
vn 0 -1 0
vn 0 -1 0
vn 0 -1 0
vn 0 -1 0
vn 0 -1 0

# No. texture coordinates 8:
vt 0.98250 0.50182
vt 0.84118 0.16081
vt 0.50000 0.01955
vt 0.15882 0.16081
vt 0.01750 0.50182
vt 0.15882 0.84284
vt 0.50000 0.98410
vt 0.84118 0.84284

# No. faces 1:

usemtl ___default___

f 8/8/9 7/7/8 6/6/7 5/5/6 4/4/5 3/3/4 2/2/3 1/1/2

# Shape "top":
g top
# No. points 8:
v 0.15966 0.50000 0.15966
v 0 0.50000 0.22580
v -0.15966 0.50000 0.15966
v -0.22579 0.50000 0
v -0.15966 0.50000 -0.15965
v 0 0.50000 -0.22579
v 0.15966 0.50000 -0.15965
v 0.22579 0.50000 0

# No. normals 9:
vn 0 1 0
vn 0 1 0
vn 0 1 0
vn 0 1 0
vn 0 1 0
vn 0 1 0
vn 0 1 0
vn 0 1 0
vn 0 1 0

# No. texture coordinates 8:
vt 0.84118 0.16058
vt 0.50000 0.01999
vt 0.15882 0.16058
vt 0.01750 0.50000
vt 0.15882 0.83940
vt 0.50000 0.97999
vt 0.84118 0.83940
vt 0.98250 0.50000

# No. faces 1:

usemtl ___default___

f 16/16/18 15/15/17 14/14/16 13/13/15 12/12/14 11/11/13 10/10/12 9/9/11

# Shape "trunk":
g trunk
# No. points 16:
v 0.15966 -0.50000 -0.15965
v 0.22579 -0.50000 0
v 0.22579 0.50000 0
v 0.15966 0.50000 -0.15965
v 0 -0.50000 -0.22579
v 0 0.50000 -0.22579
v -0.15966 -0.50000 -0.15965
v -0.15966 0.50000 -0.15965
v -0.22579 -0.50000 0
v -0.22579 0.50000 0
v -0.15966 -0.50000 0.15966
v -0.15966 0.50000 0.15966
v 0 -0.50000 0.22580
v 0 0.50000 0.22580
v 0.15966 -0.50000 0.15966
v 0.15966 0.50000 0.15966

# No. normals 32:
vn 0.92387 0 -0.38270
vn 0.38269 0 -0.92388
vn -0.38269 0 -0.92388
vn -0.92387 0 -0.38270
vn -0.92388 0 0.38268
vn -0.38269 0 0.92388
vn 0.38269 0 0.92388
vn 0.92388 0 0.38268
vn 0.70710 0 -0.70711
vn 0.92387 0 -0.38270
vn 0.92388 0 0.38268
vn 0.92387 0 -0.38270
vn 0.92388 0 0.38268
vn 0.70710 0 -0.70711
vn 0.38269 0 -0.92388
vn -0.38269 0 -0.92388
vn 0.38269 0 -0.92388
vn -0.38269 0 -0.92388
vn -0.70710 0 -0.70711
vn -0.70710 0 -0.70711
vn -0.92387 0 -0.38270
vn -0.92388 0 0.38268
vn -0.92387 0 -0.38270
vn -0.92388 0 0.38268
vn -0.70711 0 0.70710
vn -0.70711 0 0.70710
vn -0.38269 0 0.92388
vn 0.38269 0 0.92388
vn -0.38269 0 0.92388
vn 0.38269 0 0.92388
vn 0.70711 0 0.70710
vn 0.70711 0 0.70710

# No. texture coordinates 18:
vt 0.87500 0
vt 0.75000 0
vt 0.75000 1
vt 0.87500 1
vt 1 0
vt 1 1
vt 0.12500 0
vt 0.12500 1
vt 0.25000 0
vt 0.25000 1
vt 0.37500 0
vt 0.37500 1
vt 0.50000 0
vt 0.50000 1
vt 0.62500 0
vt 0.62500 1
vt 1.125 0
vt 1.125 1

# No. faces 8:

usemtl ___default___

f 20/20/32 19/19/30 18/18/28 17/17/27
f 22/22/35 20/20/32 17/17/27 21/21/33
f 24/34/38 22/22/36 21/21/34 23/33/37
f 26/26/41 24/24/38 23/23/37 25/25/39
f 28/28/44 26/26/42 25/25/40 27/27/43
f 30/30/47 28/28/44 27/27/43 29/29/45
f 32/32/50 30/30/48 29/29/46 31/31/49
f 19/19/31 32/32/50 31/31/49 18/18/29

# End of Object "object01"
